<?xml version="1.0" encoding="iso-8859-1"?>
<!-- Generator: Adobe Illustrator 19.0.0, SVG Export Plug-In . SVG Version: 6.00 Build 0)  -->
<svg xmlns="http://www.w3.org/2000/svg" xmlns:xlink="http://www.w3.org/1999/xlink" version="1.1" id="Capa_1" x="0px" y="0px" viewBox="0 0 512 512" style="enable-background:new 0 0 512 512;" xml:space="preserve">
<g>
	<path style="fill:#A0D755;" d="M149.571,40.087l8.455-29.044c0.635-2.183,3.313-2.183,3.949,0l8.455,29.044   c12.95,44.48,17.811,90.089,14.449,135.561l-4.72,63.852h-40.318l-4.72-63.852C131.76,130.176,136.621,84.566,149.571,40.087z"/>
	<path style="fill:#A0D755;" d="M198.071,40.087l8.455-29.044c0.635-2.183,3.313-2.183,3.949,0l8.455,29.044   c12.95,44.48,17.811,90.089,14.449,135.561l-4.72,63.852h-40.318l-4.72-63.852C180.26,130.176,185.121,84.566,198.071,40.087z"/>
	<path style="fill:#A0D755;" d="M246.571,40.087l8.455-29.044c0.635-2.183,3.313-2.183,3.949,0l8.455,29.044   c12.95,44.48,17.811,90.089,14.449,135.561l-4.72,63.852h-40.318l-4.72-63.852C228.76,130.176,233.621,84.566,246.571,40.087z"/>
	<path style="fill:#A0D755;" d="M295.071,40.087l8.455-29.044c0.635-2.183,3.314-2.183,3.949,0l8.455,29.044   c12.95,44.48,17.811,90.089,14.449,135.561l-4.72,63.852h-40.318l-4.72-63.852C277.26,130.176,282.121,84.566,295.071,40.087z"/>
	<path style="fill:#A0D755;" d="M343.571,40.087l8.455-29.044c0.635-2.183,3.314-2.183,3.949,0l8.455,29.044   c12.95,44.48,17.811,90.089,14.449,135.561l-4.72,63.852h-40.318l-4.72-63.852C325.76,130.176,330.621,84.566,343.571,40.087z"/>
</g>
<g>
	<path style="fill:#6ABA15;" d="M169.267,40.087l0.582-1.999l-7.874-27.045c-0.635-2.183-3.314-2.183-3.949,0l-8.455,29.044   c-12.95,44.479-17.811,90.089-14.449,135.561l4.72,63.852h19.696l-4.72-63.852C151.456,130.176,156.318,84.566,169.267,40.087z"/>
	<path style="fill:#6ABA15;" d="M217.767,40.087l0.582-1.999l-7.874-27.045c-0.635-2.183-3.314-2.183-3.949,0l-8.455,29.044   c-12.95,44.479-17.811,90.089-14.449,135.561l4.72,63.852h19.696l-4.72-63.852C199.956,130.176,204.818,84.566,217.767,40.087z"/>
	<path style="fill:#6ABA15;" d="M266.267,40.087l0.582-1.999l-7.874-27.045c-0.635-2.183-3.314-2.183-3.949,0l-8.455,29.044   c-12.95,44.479-17.811,90.089-14.449,135.561l4.72,63.852h19.696l-4.72-63.852C248.456,130.176,253.318,84.566,266.267,40.087z"/>
	<path style="fill:#6ABA15;" d="M314.767,40.087l0.582-1.999l-7.874-27.045c-0.635-2.183-3.314-2.183-3.949,0l-8.455,29.044   c-12.95,44.479-17.811,90.089-14.449,135.561l4.72,63.852h19.696l-4.72-63.852C296.956,130.176,301.818,84.566,314.767,40.087z"/>
	<path style="fill:#6ABA15;" d="M363.267,40.087l0.582-1.999l-7.874-27.045c-0.635-2.183-3.314-2.183-3.949,0l-8.455,29.044   c-12.95,44.479-17.811,90.089-14.449,135.561l4.72,63.852h19.696l-4.72-63.852C345.456,130.176,350.318,84.566,363.267,40.087z"/>
</g>
<path style="fill:#FC5D4C;" d="M259.614,504.981c-65.93,1.169-119.613-52.93-119.613-118.871V220.755  c0-2.626,2.129-4.755,4.755-4.755h225.49c2.626,0,4.755,2.129,4.755,4.755V387.5C375.001,451.584,323.433,503.85,259.614,504.981z"/>
<path style="fill:#D8483D;" d="M206.501,386.11V220.755c0-2.626,2.129-4.755,4.755-4.755h-66.5c-2.626,0-4.755,2.129-4.755,4.755  V386.11c0,65.941,53.682,120.04,119.613,118.871c10.834-0.192,21.313-1.861,31.248-4.808  C242.071,485.611,206.501,439.785,206.501,386.11z"/>
<path style="fill:#961440;" d="M214.001,451.93v-4.659c0-24.341,19.919-44.682,44.257-44.265  c23.639,0.406,42.743,19.761,42.743,43.494l-0.031,5.526c-0.025,4.411-3.607,7.974-8.019,7.974l0,0l-70.936-0.05  C217.588,459.947,214.001,456.357,214.001,451.93z"/>
<path style="fill:#FFDC64;" d="M238.643,372.195l6.358-12.483v-27.846c0-6.505,4.818-12.2,11.295-12.809  c7.432-0.7,13.705,5.153,13.705,12.443v28.876l6.227,11.763c1.408,2.659-0.52,5.861-3.529,5.861h-30.498  C239.219,378,237.289,374.851,238.643,372.195z"/>
<g>
	<path style="fill:#FFFFFF;" d="M197.501,343c-16.817,0-30.5-13.683-30.5-30.5s13.683-30.5,30.5-30.5s30.5,13.683,30.5,30.5   S214.318,343,197.501,343z"/>
	<path style="fill:#FFFFFF;" d="M317.501,343c-16.817,0-30.5-13.683-30.5-30.5s13.683-30.5,30.5-30.5s30.5,13.683,30.5,30.5   S334.318,343,317.501,343z"/>
</g>
<g>
	<path style="fill:#6ABA15;" d="M153.305,442l-2.163-4.592c-1.643-3.49-3.13-7.102-4.418-10.734L142.938,416h35.063   c7.168,0,13,5.832,13,13s-5.832,13-13,13H153.305z"/>
	<path style="fill:#6ABA15;" d="M140.001,391v-26h38c7.168,0,13,5.832,13,13s-5.832,13-13,13H140.001z"/>
</g>
<g>
	<path style="fill:#A0D755;" d="M337.001,442c-7.168,0-13-5.832-13-13s5.832-13,13-13h35.063l-3.786,10.674   c-1.288,3.633-2.775,7.244-4.418,10.734L361.697,442H337.001z"/>
	<path style="fill:#A0D755;" d="M337.001,391c-7.168,0-13-5.832-13-13s5.832-13,13-13h38v26H337.001z"/>
</g>
<path style="fill:#FFDC64;" d="M252.125,280.041c1.635,0.922,3.494,1.408,5.376,1.408c1.885,0,3.746-0.488,5.379-1.41  l110.301-62.999c-0.81-0.641-1.821-1.04-2.935-1.04h-225.49c-1.114,0-2.124,0.399-2.935,1.04L252.125,280.041z"/>
<g>
	<path style="fill:#FFBD52;" d="M143.434,216.209c-0.11,0.032-0.221,0.062-0.328,0.102c-0.198,0.076-0.389,0.164-0.573,0.264   c-0.037,0.02-0.074,0.039-0.11,0.06c-0.21,0.121-0.412,0.255-0.601,0.404l64.679,36.943v-33.227c0-2.626,2.129-4.755,4.755-4.755   h-66.5c-0.299,0-0.589,0.035-0.872,0.088C143.73,216.118,143.582,216.165,143.434,216.209z"/>
	<path style="fill:#FFBD52;" d="M257.501,319.008c-0.398,0-0.799,0.01-1.205,0.049c-6.477,0.61-11.295,6.304-11.295,12.809v27.846   l-6.358,12.483c-1.353,2.656,0.577,5.805,3.558,5.805h15.3V319.008z"/>
</g>
<path d="M160.501,123c-4.143,0-7.5,3.357-7.5,7.5v42c0,4.143,3.357,7.5,7.5,7.5s7.5-3.357,7.5-7.5v-42  C168.001,126.357,164.644,123,160.501,123z"/>
<path d="M208.501,180c4.143,0,7.5-3.357,7.5-7.5v-42c0-4.143-3.357-7.5-7.5-7.5s-7.5,3.357-7.5,7.5v42  C201.001,176.643,204.358,180,208.501,180z"/>
<path d="M256.501,180c4.143,0,7.5-3.357,7.5-7.5v-42c0-4.143-3.357-7.5-7.5-7.5c-4.143,0-7.5,3.357-7.5,7.5v42  C249.001,176.643,252.358,180,256.501,180z"/>
<path d="M304.501,180c4.143,0,7.5-3.357,7.5-7.5v-42c0-4.143-3.357-7.5-7.5-7.5s-7.5,3.357-7.5,7.5v42  C297.001,176.643,300.358,180,304.501,180z"/>
<path d="M352.501,123c-4.143,0-7.5,3.357-7.5,7.5v42c0,4.143,3.357,7.5,7.5,7.5s7.5-3.357,7.5-7.5v-42  C360.001,126.357,356.644,123,352.501,123z"/>
<path d="M235.001,312.5c0-20.678-16.822-37.5-37.5-37.5s-37.5,16.822-37.5,37.5s16.822,37.5,37.5,37.5  S235.001,333.178,235.001,312.5z M197.501,335c-12.406,0-22.5-10.094-22.5-22.5s10.094-22.5,22.5-22.5s22.5,10.094,22.5,22.5  S209.907,335,197.501,335z"/>
<path d="M317.501,350c20.678,0,37.5-16.822,37.5-37.5s-16.822-37.5-37.5-37.5s-37.5,16.822-37.5,37.5S296.823,350,317.501,350z   M317.501,290c12.406,0,22.5,10.094,22.5,22.5s-10.094,22.5-22.5,22.5s-22.5-10.094-22.5-22.5S305.095,290,317.501,290z"/>
<circle cx="197.501" cy="312.5" r="9"/>
<circle cx="318.001" cy="313" r="9"/>
<path d="M257.501,396c-27.846,0-50.5,22.654-50.5,50.5v5.45c0,8.299,6.751,15.05,15.05,15.05h70.9c8.299,0,15.05-6.751,15.05-15.05  v-5.45C308.001,418.654,285.347,396,257.501,396z M292.97,451.999c-0.002,0-0.008,0.001-0.019,0.001l-70.95-0.05v-5.45  c0-19.575,15.925-35.5,35.5-35.5s35.5,15.925,35.5,35.5L292.97,451.999z"/>
<path d="M238.001,331.5v26.532l-6.367,12.499c-1.583,3.109-1.44,6.742,0.384,9.718c1.823,2.975,4.995,4.751,8.484,4.751h33.927  c3.521,0,6.708-1.801,8.524-4.817c1.817-3.017,1.919-6.676,0.271-9.792l-6.223-11.754V331.5c0-10.752-8.748-19.5-19.5-19.5  C246.749,312,238.001,320.748,238.001,331.5z M262.001,331.5v29c0,1.224,0.299,2.428,0.872,3.51l3.171,5.99h-17.306l3.445-6.764  c0.537-1.055,0.817-2.221,0.817-3.404V331.5c0-2.481,2.019-4.5,4.5-4.5C259.981,327,262.001,329.019,262.001,331.5z"/>
<path d="M367.001,319.492V358h-29.509c-10.831,0-20.067,8.406-20.476,19.229c-0.43,11.378,8.701,20.771,19.985,20.771h29.494  c-0.356,3.724-0.898,7.394-1.619,11h-27.384c-10.831,0-20.067,8.406-20.476,19.229c-0.43,11.378,8.701,20.771,19.985,20.771h11.052  c-19.725,28.951-52.954,48-90.552,48s-70.827-19.049-90.552-48h10.561c10.831,0,20.067-8.406,20.476-19.229  c0.43-11.378-8.701-20.771-19.985-20.771h-27.875c-0.721-3.606-1.263-7.276-1.619-11h29.003c10.831,0,20.067-8.406,20.476-19.229  c0.43-11.378-8.701-20.771-19.985-20.771h-30V229.342l100.681,56.794c2.721,1.534,5.77,2.302,8.819,2.302s6.1-0.768,8.818-2.302  l100.682-56.795v46.49c0,4.142,3.358,7.5,7.5,7.5l0,0c4.142,0,7.5-3.358,7.5-7.5V216.5c0-2.107-0.871-4.008-2.27-5.37l3.081-47.612  c2.242-34.652-0.999-69.404-9.635-103.29L359.341,5.932c-0.774-3.038-3.244-5.465-6.353-5.868c-3.828-0.497-7.328,1.945-8.255,5.583  l-13.909,54.581c-1.018,3.996-1.955,8.004-2.823,12.022c-0.868-4.018-1.805-8.026-2.823-12.022L311.341,5.932  c-0.774-3.038-3.244-5.465-6.353-5.868c-3.828-0.497-7.328,1.945-8.255,5.583l-13.909,54.581c-1.018,3.996-1.955,8.004-2.823,12.022  c-0.868-4.018-1.805-8.026-2.823-12.022L263.341,5.932c-0.774-3.038-3.244-5.465-6.353-5.868c-3.828-0.497-7.328,1.945-8.255,5.583  l-13.909,54.581c-1.018,3.996-1.955,8.004-2.823,12.022c-0.868-4.018-1.805-8.026-2.823-12.022L215.341,5.932  c-0.774-3.038-3.244-5.465-6.353-5.868c-3.828-0.497-7.328,1.945-8.255,5.583l-13.909,54.581c-1.018,3.996-1.955,8.004-2.823,12.022  c-0.868-4.018-1.805-8.026-2.823-12.022L167.341,5.932c-0.774-3.038-3.244-5.465-6.353-5.868c-3.828-0.497-7.328,1.945-8.255,5.583  l-13.909,54.581c-8.636,33.886-11.877,68.638-9.635,103.29l3.46,53.466c0.041,0.63,0.166,1.234,0.352,1.811V386.13  c0,68.701,55.073,125.473,123.772,125.868c68.982,0.396,125.228-55.606,125.228-124.498v-68.008c0-4.142-3.358-7.5-7.5-7.5l0,0  C370.359,311.992,367.001,315.35,367.001,319.492z M345.359,63.934l6.642-26.063l6.642,26.063  c8.246,32.357,11.342,65.537,9.201,98.616L364.838,209h-25.674l-3.006-46.45C334.018,129.471,337.113,96.291,345.359,63.934z   M297.359,63.934l6.642-26.063l6.642,26.063c8.246,32.357,11.342,65.537,9.201,98.616L316.838,209h-25.674l-3.006-46.45  C286.018,129.471,289.113,96.291,297.359,63.934z M249.359,63.934l6.642-26.063l6.642,26.063  c8.246,32.357,11.342,65.537,9.201,98.616L268.838,209h-25.674l-3.006-46.45C238.018,129.471,241.113,96.291,249.359,63.934z   M201.359,63.934l6.642-26.063l6.642,26.063c8.246,32.357,11.342,65.537,9.201,98.616L220.838,209h-25.674l-3.006-46.45  C190.018,129.471,193.113,96.291,201.359,63.934z M345.941,224l-86.991,49.071c-0.893,0.504-2.003,0.504-2.897,0L169.061,224  H345.941z M144.158,162.55c-2.141-33.079,0.955-66.259,9.201-98.616l6.642-26.063l6.642,26.063  c8.246,32.357,11.342,65.537,9.201,98.616L172.838,209h-25.674L144.158,162.55z M148.001,373h30c2.757,0,5,2.243,5,5s-2.243,5-5,5  h-30V373z M154.264,424h23.737c2.757,0,5,2.243,5,5s-2.243,5-5,5H158.38C156.849,430.75,155.475,427.414,154.264,424z M356.622,434  h-19.621c-2.757,0-5-2.243-5-5s2.243-5,5-5h23.737C359.527,427.414,358.153,430.75,356.622,434z M367.001,383h-30  c-2.757,0-5-2.243-5-5s2.243-5,5-5h30V383z"/>
<g>
</g>
<g>
</g>
<g>
</g>
<g>
</g>
<g>
</g>
<g>
</g>
<g>
</g>
<g>
</g>
<g>
</g>
<g>
</g>
<g>
</g>
<g>
</g>
<g>
</g>
<g>
</g>
<g>
</g>
</svg>
